<svg xmlns="http://www.w3.org/2000/svg" xmlns:xlink="http://www.w3.org/1999/xlink" fill="#9b802e" height="800px" width="800px" version="1.1" id="Capa_1" viewBox="0 0 499.91 499.91" xml:space="preserve">
<g>
	<path d="M425.935,35.374c-8.218-17.013-24.433-27.528-36.868-31.697C381.788,1.237,374.509,0,367.433,0   c-12.015,0-23.472,3.514-34.055,10.445c-5.764,3.775-13.341,9.712-12.599,17.659c0.219,2.343,1.126,4.585,2.764,6.773   c-9.25,9.73-13.951,21.886-13.951,36.211c0,30.108,24.494,54.603,54.603,54.603c13.885,0,25.477-3.706,34.475-10.999   c3.207-1.591,19.869-10.797,28.267-33.986C432.878,64.304,432.54,49.051,425.935,35.374z M334.656,106.452   c1.666-0.575,2.871-2.14,2.871-4.002c0-2.347-1.902-4.25-4.25-4.25h-6.338c-1.704-2.335-3.196-4.833-4.443-7.471h8.538   c5.348,0,9.698,4.351,9.698,9.698v5.405c0,2.347,1.902,4.25,4.25,4.25c2.348,0,4.25-1.903,4.25-4.25v-5.405   c0-10.035-8.164-18.198-18.198-18.198H319.46c-0.889-3.569-1.368-7.299-1.368-11.14c0-12.257,3.835-22.242,11.676-30.431   c4.085,2.897,9.607,5.771,16.749,8.737c19.224,7.985,18.852,24.487,16.993,39.328c-0.329,2.626-0.566,4.524-0.464,6.058   c0.148,2.232,2.003,3.967,4.24,3.967h12.368c2.348,0,4.25-1.903,4.25-4.25V75.506c0-4.72,3.84-8.559,8.56-8.559   c4.719,0,8.559,3.839,8.559,8.559c0,3.735-2.387,7.01-5.939,8.151c-1.257,0.404-2.255,1.369-2.7,2.611   c-1.002,2.792-5.104,15.302-1.638,23.736c-7.081,4.772-15.993,7.188-26.552,7.188C352.963,117.192,342.662,113.151,334.656,106.452   z M418.945,77.813c-5.617,15.51-15.577,23.843-20.829,27.346c-0.702-3.79,0.317-9.744,1.685-14.247   c5.897-2.795,9.722-8.734,9.722-15.407c0-9.406-7.652-17.059-17.059-17.059c-9.406,0-17.06,7.653-17.06,17.059v14.743h-3.52   c0.02-0.156,0.04-0.313,0.06-0.469c1.39-11.101,4.645-37.096-22.167-48.233c-18.034-7.491-20.369-12.449-20.535-14.232   c-0.227-2.431,2.896-5.896,8.792-9.759c9.176-6.009,19.066-9.056,29.398-9.056c6.156,0,12.526,1.089,18.933,3.236   c10.794,3.618,24.847,12.699,31.915,27.334C423.853,50.608,424.077,63.644,418.945,77.813z" fill="#9b802e"/>
	<path d="M423.261,177.933c-1.701-30.495-20.832-50.203-44.444-50.203h-7.532c-21.098,0-41.106,15.613-48.657,37.969   c-0.093,0.274-0.154,0.55-0.189,0.826l-80.627,51.566c-0.851,0.544-1.657,1.132-2.425,1.753   c-5.648-4.234-22.541-14.753-48.218-12.163c-1.92,0.193-3.469,1.657-3.771,3.563l-6.5,41c-0.249,1.574,0.421,3.147,1.707,4.088   c1.286,0.94,3.009,1.074,4.434,0.357c0.184-0.093,18.826-9.067,54.85,6.737c0.055,0.024,0.112,0.032,0.167,0.053   c4.194,2.621,9.099,4.065,14.24,4.065c5.118,0,10.111-1.463,14.44-4.231l46.522-29.753l-3.527,73.113   c-0.056,1.161,0.366,2.295,1.168,3.137c0.803,0.841,1.914,1.318,3.077,1.318h23.908v152.249c0,17.832,14.508,32.339,32.34,32.339   c17.831,0,32.338-14.507,32.338-32.339V311.128h12.467c2.348,0,4.25-1.903,4.25-4.25   C423.275,306.878,425.053,210.061,423.261,177.933z M205.122,236.078c-3.834-3.142-8.724-3.864-12.446-3.858l0.474-2.988   c0.6,0.034,1.206,0.075,1.783,0.075c5.39-0.001,9.75-1.451,13.002-4.336c2.722-2.415,4.077-5.317,4.752-7.727   c10.469,2.271,17.686,6.634,20.994,8.981c-4.523,7.08-5.558,16.048-2.474,24.087c-7.907-2.497-14.854-3.82-20.835-4.402   C209.642,240.836,207.226,237.801,205.122,236.078z M204.125,215.988c-0.385,0.919-0.974,1.881-1.888,2.673   c-1.975,1.713-4.918,2.186-7.75,2.134l0.778-4.909C198.379,215.717,201.334,215.77,204.125,215.988z M191.321,240.772   c2.548-0.161,6.195,0.062,8.415,1.88c0.871,0.714,1.489,1.677,1.876,2.892c-4.596,0.083-8.35,0.61-11.244,1.239L191.321,240.772z    M266.153,256.152c-2.959,1.892-6.369,2.893-9.861,2.893c-6.299,0-12.083-3.164-15.472-8.461c-5.448-8.52-2.95-19.884,5.57-25.331   l111.556-71.346c2.959-1.892,6.368-2.893,9.86-2.893c6.299,0,12.083,3.164,15.472,8.461c5.448,8.52,2.95,19.884-5.569,25.332   L266.153,256.152z M374.22,487.216c-13.146,0-23.84-10.694-23.84-23.839v-10.978h47.678v10.978   C398.058,476.522,387.365,487.216,374.22,487.216z M398.058,443.899H350.38v-11.412h7.415c2.348,0,4.25-1.903,4.25-4.25   c0-2.347-1.902-4.25-4.25-4.25h-7.415V311.128h30.391v59.389c0,2.347,1.902,4.25,4.25,4.25c2.348,0,4.25-1.903,4.25-4.25v-59.389   h8.787V443.899z M414.775,302.628h-92.343l0.604-12.528h55.317c2.348,0,4.25-1.903,4.25-4.25c0-2.347-1.902-4.25-4.25-4.25h-54.907   l0.49-10.167h13.75c2.348,0,4.25-1.903,4.25-4.25c0-2.347-1.902-4.25-4.25-4.25h-13.34l1.689-34.989l56.253-35.977   c12.467-7.974,16.123-24.604,8.15-37.073c-4.959-7.753-13.42-12.382-22.633-12.382c-5.118,0-10.111,1.463-14.44,4.231   l-17.845,11.413c8.13-13.151,21.896-21.928,35.764-21.928h7.532c22.985,0,34.838,22.57,35.958,42.178   C416.545,209.413,414.775,302.628,414.775,302.628z" fill="#9b802e"/>
	<path d="M145.508,84.815c-0.402-1.981-2.144-3.405-4.165-3.405h-20.75V46.66c0-2.347-1.903-4.25-4.25-4.25H73.005   c-2.347,0-4.25,1.903-4.25,4.25v39v212v198c0,2.347,1.903,4.25,4.25,4.25h43.338c2.347,0,4.25-1.903,4.25-4.25V301.91h63.75   c0.006-0.001,0.013-0.001,0.02,0c2.347,0,4.25-1.903,4.25-4.25c0-0.436-0.065-0.856-0.188-1.252L145.508,84.815z M112.093,50.91   v30.5H77.255v-30.5H112.093z M112.093,491.41H77.255v-189.5h34.838V491.41z M77.255,293.41v-25.833h74.088   c2.347,0,4.25-1.903,4.25-4.25s-1.903-4.25-4.25-4.25H77.255v-8.167h28.755c2.347,0,4.25-1.903,4.25-4.25   c0-2.347-1.903-4.25-4.25-4.25H77.255V89.91h60.613l5.24,25.834H88.01c-2.347,0-4.25,1.903-4.25,4.25c0,2.347,1.903,4.25,4.25,4.25   h56.822l34.312,169.167H77.255z" fill="#9b802e"/>
	<path d="M394.093,206.66v63c0,2.347,1.902,4.25,4.25,4.25c2.348,0,4.25-1.903,4.25-4.25v-63c0-2.347-1.902-4.25-4.25-4.25   C395.995,202.41,394.093,204.313,394.093,206.66z" fill="#9b802e"/>
	<path d="M96.343,142.41c-2.347,0-4.25,1.903-4.25,4.25v56c0,2.347,1.903,4.25,4.25,4.25c2.347,0,4.25-1.903,4.25-4.25v-56   C100.593,144.313,98.69,142.41,96.343,142.41z" fill="#9b802e"/>
</g>
</svg>