<svg width="70" height="70" viewBox="0 0 70 70" fill="none" xmlns="http://www.w3.org/2000/svg">
<g clip-path="url(#clip0_46_1567)">
<path d="M69.5564 3.32288L53.8037 1.10898L52.8549 7.86015L68.6076 10.0741L69.5564 3.32288Z" fill="#9B802E"/>
<path d="M68.9146 3.80641L54.2871 1.75064L53.4964 7.37662L68.124 9.43238L68.9146 3.80641Z" stroke="#707070"/>
<path d="M58.8905 34.5317L60.1348 26.6758L53.4012 25.6093L52.1569 33.4652L58.8905 34.5317Z" fill="#9B802E"/>
<path d="M26.0263 58.4023C25.0921 58.4023 24.1962 58.7734 23.5356 59.434C22.875 60.0945 22.5039 60.9905 22.5039 61.9247C22.5039 62.1994 22.613 62.4628 22.8072 62.657C23.0015 62.8513 23.2649 62.9604 23.5396 62.9604C23.8143 62.9604 24.0777 62.8513 24.272 62.657C24.4662 62.4628 24.5753 62.1994 24.5753 61.9247C24.5753 61.5401 24.728 61.1714 24.9999 60.8995C25.2719 60.6276 25.6406 60.4748 26.0252 60.4748C26.4097 60.4748 26.7785 60.6276 27.0504 60.8995C27.3223 61.1714 27.475 61.5401 27.475 61.9247C27.475 62.1994 27.5841 62.4628 27.7784 62.657C27.9726 62.8513 28.236 62.9604 28.5107 62.9604C28.7854 62.9604 29.0488 62.8513 29.2431 62.657C29.4373 62.4628 29.5464 62.1994 29.5464 61.9247C29.5464 60.9909 29.1756 60.0953 28.5155 59.4348C27.8554 58.7743 26.9601 58.4029 26.0263 58.4023Z" fill="black"/>
<path d="M42.0409 61.0247C41.1068 61.0247 40.2108 61.3958 39.5503 62.0564C38.8897 62.717 38.5186 63.6129 38.5186 64.5471C38.5186 64.8218 38.6277 65.0852 38.8219 65.2795C39.0161 65.4737 39.2796 65.5828 39.5542 65.5828C39.8289 65.5828 40.0924 65.4737 40.2866 65.2795C40.4808 65.0852 40.5899 64.8218 40.5899 64.5471C40.5899 64.1626 40.7427 63.7938 41.0146 63.5219C41.2865 63.25 41.6553 63.0973 42.0398 63.0973C42.4243 63.0973 42.7931 63.25 43.065 63.5219C43.3369 63.7938 43.4897 64.1626 43.4897 64.5471C43.4897 64.8218 43.5988 65.0852 43.793 65.2795C43.9872 65.4737 44.2507 65.5828 44.5254 65.5828C44.8 65.5828 45.0635 65.4737 45.2577 65.2795C45.4519 65.0852 45.561 64.8218 45.561 64.5471C45.561 63.6133 45.1903 62.7177 44.5302 62.0572C43.8701 61.3967 42.9747 61.0254 42.0409 61.0247Z" fill="black"/>
<path d="M57.2289 65.3744C57.2289 65.5382 57.1803 65.6983 57.0893 65.8345C56.9983 65.9708 56.869 66.0769 56.7176 66.1396C56.5662 66.2023 56.3997 66.2187 56.239 66.1867C56.0783 66.1548 55.9307 66.0759 55.8149 65.9601C55.699 65.8442 55.6201 65.6966 55.5882 65.5359C55.5562 65.3753 55.5726 65.2087 55.6353 65.0573C55.698 64.906 55.8042 64.7766 55.9404 64.6856C56.0766 64.5946 56.2368 64.546 56.4006 64.546C56.6203 64.546 56.831 64.6333 56.9863 64.7886C57.1416 64.944 57.2289 65.1547 57.2289 65.3744Z" fill="black"/>
<path d="M16.9135 63.1655C16.9135 63.3293 16.8649 63.4894 16.7739 63.6256C16.6829 63.7619 16.5535 63.868 16.4022 63.9307C16.2508 63.9934 16.0843 64.0098 15.9236 63.9779C15.7629 63.9459 15.6153 63.867 15.4995 63.7512C15.3836 63.6353 15.3047 63.4877 15.2728 63.327C15.2408 63.1664 15.2572 62.9998 15.3199 62.8485C15.3826 62.6971 15.4888 62.5677 15.625 62.4767C15.7612 62.3857 15.9213 62.3371 16.0852 62.3371C16.3049 62.3371 16.5155 62.4244 16.6709 62.5797C16.8262 62.7351 16.9135 62.9458 16.9135 63.1655Z" fill="black"/>
<path d="M63.1654 62.1303C62.6403 62.1299 62.1169 62.1898 61.6054 62.3087C60.5178 60.82 59.0801 59.6222 57.4194 58.8215L62.5666 55.6071C63.7938 54.8397 64.8463 53.8232 65.6558 52.6233C66.4653 51.4235 67.014 50.0671 67.2662 48.6418L69.4705 36.1317C69.5181 35.8612 69.4564 35.583 69.2989 35.358C69.1415 35.133 68.9012 34.9797 68.6308 34.9318L66.7594 34.6023C66.6255 34.5787 66.4882 34.5817 66.3555 34.6112C66.2227 34.6407 66.0971 34.696 65.9857 34.774C65.8744 34.8521 65.7794 34.9513 65.7064 35.066C65.6334 35.1807 65.5837 35.3086 65.5601 35.4426C65.5365 35.5765 65.5396 35.7137 65.569 35.8465C65.5985 35.9792 65.6538 36.1049 65.7318 36.2162C65.8099 36.3276 65.9091 36.4225 66.0238 36.4955C66.1385 36.5686 66.2664 36.6183 66.4004 36.6419L67.2525 36.7919L65.2209 48.2828C65.0192 49.422 64.5806 50.5062 63.9336 51.4652C63.2865 52.4243 62.4453 53.2369 61.4645 53.8504L55.8843 57.3353C55.4234 57.6223 54.9038 57.8021 54.364 57.8614C53.7574 57.7618 53.1437 57.7116 52.529 57.7114C52.2548 57.7114 51.9794 57.7216 51.7029 57.7421C51.2786 56.3761 50.4726 55.16 49.3798 54.2371C48.287 53.3142 46.9531 52.7231 45.5353 52.5335L44.1889 50.803C43.2471 49.6058 42.657 48.1702 42.4845 46.6568C43.6296 47.3485 44.9374 47.7248 46.275 47.7476C47.2161 47.7443 48.1456 47.541 49.002 47.1511C53.7016 45.041 56.1604 37.7043 56.2741 37.3929C56.3573 37.1399 56.3399 36.8644 56.2254 36.6239C56.111 36.3833 55.9082 36.196 55.6594 36.101C53.2154 35.2148 50.6451 34.7264 48.0465 34.6546C46.7132 34.6288 45.3869 34.852 44.1355 35.3125L44.5798 32.7979L52.8358 34.2512L59.0113 35.3397L61.7144 35.8158C61.9849 35.8636 62.2633 35.8019 62.4883 35.6445C62.7133 35.487 62.8666 35.2466 62.9143 34.9761C62.9621 34.7057 62.9005 34.4273 62.743 34.2023C62.5855 33.9772 62.3451 33.824 62.0746 33.7762L60.3907 33.4797L61.6985 26.0372L64.4824 10.2433L67.6945 10.8114C67.7542 10.8219 67.8146 10.8272 67.8752 10.8273C68.1191 10.8279 68.3554 10.7424 68.5424 10.5858C68.7295 10.4293 68.8553 10.2119 68.8978 9.97174L69.9864 3.7962C70.0339 3.52576 69.9722 3.2475 69.8148 3.02252C69.6573 2.79754 69.4171 2.64426 69.1467 2.59632L54.5061 0.0158885C54.2356 -0.0316848 53.9573 0.0300254 53.7324 0.187466C53.5074 0.344906 53.3541 0.585203 53.3062 0.855579L52.2176 7.03111C52.1938 7.16506 52.1966 7.30239 52.2259 7.43525C52.2552 7.5681 52.3104 7.69387 52.3884 7.80534C52.4665 7.9168 52.5657 8.01178 52.6805 8.08482C52.7953 8.15787 52.9233 8.20754 53.0573 8.231L56.2695 8.79912L55.723 11.9034C55.6994 12.0373 55.7024 12.1745 55.7319 12.3073C55.7614 12.44 55.8167 12.5657 55.8947 12.677C55.9728 12.7884 56.0719 12.8833 56.1867 12.9564C56.3014 13.0294 56.4293 13.0791 56.5632 13.1027C56.6972 13.1263 56.8344 13.1232 56.9672 13.0938C57.0999 13.0643 57.2256 13.009 57.3369 12.9309C57.4483 12.8529 57.5432 12.7537 57.6162 12.639C57.6893 12.5243 57.739 12.3963 57.7626 12.2624L58.3102 9.15818L62.4462 9.88766L59.8419 24.6589L55.7059 23.9295L56.9115 17.0915C56.9591 16.821 56.8973 16.5427 56.7398 16.3178C56.5822 16.0929 56.3417 15.9398 56.0712 15.8922C55.8008 15.8446 55.5225 15.9063 55.2976 16.0639C55.0727 16.2215 54.9195 16.462 54.8719 16.7324L53.4868 24.5896L52.1745 32.0332L43.9309 30.58C43.797 30.5562 43.6597 30.5592 43.5269 30.5885C43.3941 30.6179 43.2684 30.6732 43.157 30.7511C43.0456 30.8291 42.9506 30.9283 42.8775 31.043C42.8044 31.1577 42.7547 31.2857 42.7311 31.4196L41.7778 36.8259C40.9902 37.6992 40.3964 38.7294 40.0354 39.8486C39.6745 40.9678 39.5546 42.1507 39.6836 43.3196C38.3257 43.9604 37.0911 44.835 36.0363 45.9035V34.1103C38.1951 33.3354 41.2823 31.2538 41.2823 27.4064C41.2823 22.3819 35.9863 16.5927 35.7613 16.3484C35.6644 16.2433 35.5467 16.1595 35.4158 16.1022C35.2849 16.0449 35.1435 16.0153 35.0006 16.0153C34.8576 16.0153 34.7163 16.0449 34.5853 16.1022C34.4544 16.1595 34.3368 16.2433 34.2398 16.3484C34.0126 16.5927 28.7188 22.3819 28.7188 27.4064C28.7188 31.2538 31.8049 33.3354 33.9649 34.1103V43.8287C32.9105 42.7606 31.6767 41.8861 30.3198 41.2448C30.447 39.4791 30.2846 35.4306 26.4917 33.5183C25.0703 32.8563 23.514 32.5354 21.9467 32.5809C19.3481 32.6528 16.7778 33.1411 14.3338 34.0273C14.0849 34.1224 13.8822 34.3096 13.7677 34.5502C13.6533 34.7908 13.6359 35.0662 13.7191 35.3193C13.8214 35.6306 16.2859 42.9674 20.9911 45.0774C21.8493 45.4684 22.7808 45.6722 23.7238 45.6751C25.8848 45.5659 27.928 44.6571 29.4562 43.1253C31.2678 44.025 32.8198 45.3724 33.9649 47.0397V53.9265C32.9621 54.0917 32.0125 54.4916 31.1936 55.0935C30.319 54.073 29.1873 53.3053 27.9158 52.87C26.6443 52.4347 25.2795 52.3477 23.963 52.6182C22.6466 52.8886 21.4265 53.5065 20.4296 54.4077C19.4326 55.3089 18.6951 56.4607 18.2937 57.7432C18.0176 57.7228 17.7426 57.7125 17.4688 57.7125C15.701 57.7081 13.9574 58.1224 12.3806 58.9215C10.8038 59.7206 9.43866 60.8817 8.39691 62.3098C7.39344 62.0753 6.34995 62.0705 5.34439 62.2959C4.33882 62.5213 3.39717 62.9709 2.58977 63.6113C1.78236 64.2516 1.13008 65.0661 0.681636 65.9939C0.233191 66.9217 0.000177835 67.9389 0 68.9694C0 69.2439 0.109058 69.5072 0.303182 69.7013C0.497305 69.8955 0.760594 70.0045 1.03513 70.0045H68.9649C69.2394 70.0045 69.5027 69.8955 69.6968 69.7013C69.8909 69.5072 70 69.2439 70 68.9694C69.9991 67.1566 69.2789 65.4183 67.9975 64.136C66.7161 62.8538 64.9782 62.1324 63.1654 62.1303ZM55.1651 2.23499L67.765 4.45637L67.0389 8.59233L63.8267 8.0242L57.6512 6.93567L54.4413 6.36754L55.1651 2.23499ZM55.3435 25.9679L59.4794 26.6974L58.3432 33.1206L54.2072 32.3911L55.3435 25.9679ZM21.8354 43.1901C18.8618 41.855 16.8359 37.5736 16.053 35.6386C17.9609 35.0354 19.9441 34.7038 21.9445 34.6534C23.1888 34.6093 24.4264 34.8543 25.56 35.3693C26.4294 35.8572 27.1449 36.5788 27.6254 37.4523C28.106 38.3258 28.3324 39.3164 28.2791 40.312L23.2977 37.9258C23.0499 37.8074 22.7651 37.7923 22.5061 37.8838C22.2471 37.9753 22.035 38.166 21.9166 38.4139C21.7982 38.6617 21.7831 38.9465 21.8746 39.2055C21.9661 39.4645 22.1568 39.6765 22.4046 39.795L27.386 42.1811C26.3535 43.0446 25.0661 43.5452 23.7216 43.606C23.0704 43.6031 22.4274 43.4613 21.8354 43.1901ZM48.0555 36.7248C50.0561 36.7762 52.0396 37.1078 53.9482 37.7099C53.1641 39.6416 51.145 43.9218 48.1646 45.2603C47.5733 45.531 46.9311 45.6727 46.2807 45.6762C44.9379 45.6119 43.6527 45.1108 42.6208 44.2491L47.5976 41.8709C47.8455 41.7525 48.0362 41.5404 48.1277 41.2814C48.2192 41.0224 48.2041 40.7377 48.0857 40.4898C47.9672 40.2419 47.7552 40.0513 47.4962 39.9597C47.2372 39.8682 46.9524 39.8833 46.7045 40.0018L41.7289 42.3811C41.6785 41.3872 41.9054 40.399 42.3844 39.5267C42.8634 38.6545 43.5755 37.9326 44.4411 37.4418C45.5745 36.9273 46.8116 36.6823 48.0555 36.726V36.7248ZM40.3779 45.2797C40.2661 47.7335 41.0391 50.1459 42.5561 52.0779L42.9833 52.6233C41.3536 52.9576 39.883 53.8286 38.8064 55.0969C37.9879 54.495 37.0387 54.0952 36.0363 53.93V49.1145C37.1479 47.5005 38.6387 46.1841 40.3779 45.2808V45.2797ZM30.7925 27.4064C30.7925 24.2181 33.6115 20.3616 35.0045 18.6459C36.3976 20.356 39.2155 24.2135 39.2155 27.4064C39.1794 28.3781 38.8593 29.3179 38.2949 30.1097C37.7305 30.9015 36.9465 31.5106 36.0397 31.8617V27.82C36.0397 27.5453 35.9306 27.2819 35.7363 27.0877C35.5421 26.8934 35.2787 26.7843 35.004 26.7843C34.7293 26.7843 34.4659 26.8934 34.2716 27.0877C34.0774 27.2819 33.9683 27.5453 33.9683 27.82V31.8548C33.0643 31.5016 32.2826 30.8929 31.7187 30.103C31.1547 29.3131 30.8329 28.3761 30.7925 27.4064ZM2.18388 67.9286C2.3325 67.2673 2.62028 66.6452 3.02808 66.1038C3.43588 65.5624 3.95433 65.114 4.54892 64.7886C5.14351 64.4632 5.8006 64.2682 6.47644 64.2166C7.15228 64.1649 7.83137 64.2579 8.46849 64.4892C8.69064 64.5704 8.93391 64.5731 9.15781 64.4968C9.3817 64.4205 9.57271 64.2698 9.69906 64.0699C10.5235 62.7551 11.669 61.6718 13.0276 60.922C14.3863 60.1722 15.9135 59.7806 17.4653 59.7839C17.952 59.7836 18.4379 59.8216 18.9186 59.8976C19.1874 59.9401 19.4622 59.8751 19.6835 59.7167C19.9048 59.5583 20.055 59.3192 20.1015 59.051C20.2925 57.957 20.813 56.9473 21.5933 56.157C22.3737 55.3667 23.3768 54.8335 24.4683 54.6287C25.5599 54.4238 26.688 54.5571 27.7018 55.0108C28.7156 55.4644 29.5667 56.2167 30.1414 57.1671C30.2247 57.3046 30.3389 57.4208 30.4749 57.5065C30.611 57.5922 30.7651 57.645 30.9251 57.6608C31.0851 57.6765 31.2466 57.6548 31.3967 57.5973C31.5468 57.5399 31.6815 57.4482 31.7901 57.3296C32.1975 56.884 32.6933 56.5281 33.2458 56.2846C33.7984 56.0411 34.3956 55.9153 34.9994 55.9153C35.6033 55.9153 36.2005 56.0411 36.753 56.2846C37.3056 56.5281 37.8013 56.884 38.2088 57.3296C38.3173 57.4482 38.452 57.5399 38.6022 57.5973C38.7523 57.6548 38.9138 57.6765 39.0738 57.6608C39.2338 57.645 39.3879 57.5922 39.5239 57.5065C39.66 57.4208 39.7742 57.3046 39.8575 57.1671C40.4321 56.2167 41.2833 55.4644 42.297 55.0108C43.3108 54.5571 44.4389 54.4238 45.5305 54.6287C46.6221 54.8335 47.6252 55.3667 48.4055 56.157C49.1859 56.9473 49.7064 57.957 49.8974 59.051C49.9436 59.3193 50.0937 59.5586 50.3151 59.7171C50.5365 59.8755 50.8114 59.9404 51.0803 59.8976C51.5609 59.8216 52.0469 59.7836 52.5335 59.7839C54.0854 59.7806 55.6125 60.1722 56.9712 60.922C58.3299 61.6718 59.4754 62.7551 60.2998 64.0699C60.4262 64.2698 60.6172 64.4205 60.8411 64.4968C61.065 64.5731 61.3082 64.5704 61.5304 64.4892C62.1675 64.2579 62.8466 64.1649 63.5224 64.2166C64.1983 64.2682 64.8554 64.4632 65.4499 64.7886C66.0445 65.114 66.563 65.5624 66.9708 66.1038C67.3786 66.6452 67.6664 67.2673 67.815 67.9286H2.18388Z" fill="black"/>
</g>
<defs>
<clipPath id="clip0_46_1567">
<rect width="70" height="70" fill="white"/>
</clipPath>
</defs>
</svg>
