<svg width="69" height="70" viewBox="0 0 69 70" fill="none" xmlns="http://www.w3.org/2000/svg">
<g clip-path="url(#clip0_46_1597)">
<path d="M25.1289 44.9609L28.5297 43.7678C31.9762 42.4753 35.155 40.5585 37.9065 38.1134C41.3801 35.0261 44.0869 31.1722 45.8123 26.857L47.3858 22.9161L42.1389 21.8713C38.7299 27.3255 33.6737 31.5532 27.7022 33.9427L26.4004 34.4651L25.1289 44.9609Z" fill="#9B802E"/>
<path d="M1.04478 67.9104H0V70H1.04478V67.9104Z" fill="#333333"/>
<path d="M68.9548 67.9104H66.8652V70H68.9548V67.9104Z" fill="#333333"/>
<path d="M64.8747 62.2687C64.8627 60.9318 64.4955 59.6223 63.8107 58.4741C63.1259 57.3259 62.1482 56.3805 60.9777 55.7346L59.9643 55.1663C60.9579 55.1211 61.8972 54.6999 62.5918 53.9879C63.2863 53.2758 63.6841 52.3264 63.7046 51.3319V51.1679C63.6834 50.1249 63.2496 49.1328 62.4981 48.4091C61.7466 47.6854 60.7389 47.2893 59.6958 47.3075C59.0752 47.3076 58.4626 47.4469 57.903 47.7149L56.8331 48.231L53.448 45.6254C52.38 44.8067 51.5448 43.7229 51.0252 42.4816L50.2343 40.5791C49.8579 39.6753 49.6644 38.7059 49.6649 37.7269V36.9224L54.5398 35.7491L52.5328 26.086C52.3123 25.069 51.8179 24.1317 51.103 23.3756C50.3881 22.6194 49.48 22.0732 48.477 21.7961L40.311 19.4328V16.7718C41.0482 16.0561 41.6349 15.2002 42.0367 14.2545C42.4384 13.3087 42.647 12.2923 42.6503 11.2648V7.88492C42.5674 5.76879 41.6686 3.76691 40.1421 2.29901C38.6156 0.831106 36.5801 0.0112 34.4624 0.0112C32.3446 0.0112 30.3091 0.831106 28.7826 2.29901C27.2561 3.76691 26.3573 5.76879 26.2744 7.88492V11.2637C26.2775 12.2913 26.4861 13.3078 26.8878 14.2535C27.2895 15.1993 27.8763 16.0551 28.6137 16.7707V19.4328L20.4435 21.794C19.4405 22.0711 18.5324 22.6173 17.8175 23.3735C17.1026 24.1296 16.6082 25.0669 16.3877 26.0839L14.3807 35.747L19.2556 36.9203V37.7248C19.2562 38.7035 19.0627 39.6726 18.6862 40.576L17.8953 42.4785C17.3753 43.7196 16.5402 44.8033 15.4725 45.6222L12.0906 48.2279L11.0207 47.7118C10.4608 47.4447 9.84827 47.3058 9.22787 47.3054C8.18477 47.2872 7.17701 47.6833 6.42554 48.407C5.67407 49.1307 5.24021 50.1228 5.21907 51.1658V51.3298C5.23952 52.3243 5.63735 53.2738 6.33189 53.9858C7.02644 54.6978 7.96573 55.119 8.95937 55.1642L7.94593 55.7325C6.77553 56.3788 5.79802 57.3247 5.11359 58.4733C4.42917 59.6218 4.06245 60.9317 4.05101 62.2687C4.05377 63.2613 4.25629 64.2432 4.64651 65.1559C5.03673 66.0687 5.60666 66.8935 6.32235 67.5813H2.88086V69.8339H66.0438V67.5813H62.6034C63.3191 66.8935 63.889 66.0687 64.2792 65.1559C64.6695 64.2432 64.872 63.2613 64.8747 62.2687ZM43.0535 59.9701L40.7352 58.6307L41.4801 57.9119V56.4545C41.487 56.1133 41.6289 55.7887 41.8746 55.5519C42.1204 55.3151 42.4501 55.1855 42.7913 55.1913C43.7519 55.1918 44.676 54.8234 45.3729 54.1622L47.4291 52.1772C47.6798 51.94 48.0117 51.8077 48.3568 51.8073C48.5262 51.8043 48.6946 51.8346 48.8522 51.8967C49.0099 51.9588 49.1538 52.0513 49.2756 52.169C49.3975 52.2867 49.495 52.4272 49.5625 52.5826C49.63 52.738 49.6662 52.9052 49.6691 53.0746C49.6692 53.2418 49.6353 53.4072 49.5694 53.5608C49.5034 53.7143 49.4069 53.8529 49.2856 53.9679L43.0535 59.9701ZM19.6401 53.97C19.5188 53.855 19.4223 53.7164 19.3564 53.5629C19.2905 53.4093 19.2565 53.2438 19.2567 53.0767C19.2635 52.7355 19.4054 52.4109 19.6512 52.1741C19.897 51.9374 20.2266 51.8077 20.5679 51.8136C20.913 51.8139 21.2449 51.9462 21.4956 52.1834L23.5518 54.1685C24.2487 54.8296 25.1728 55.198 26.1334 55.1976C26.4746 55.1917 26.8043 55.3214 27.0501 55.5582C27.2959 55.795 27.4377 56.1195 27.4446 56.4607V57.9172L29.3001 59.7037L27.4446 61.4903L19.6401 53.97ZM30.954 58.1042L29.7838 56.9779V56.4555C29.7646 55.5057 29.3696 54.6022 28.6853 53.9432C28.001 53.2841 27.0833 52.9233 26.1334 52.9398C25.7883 52.9395 25.4563 52.8072 25.2056 52.57L23.1495 50.5849C22.8747 50.3291 22.5617 50.1176 22.2218 49.9581C22.716 49.639 23.1615 49.2502 23.5444 48.8036C26.9008 50.6401 30.6389 51.6693 34.4624 51.8094C38.2856 51.669 42.0236 50.6402 45.3803 48.8046C45.7635 49.2494 46.209 49.6365 46.7029 49.9539C46.363 50.1134 46.05 50.3249 45.7752 50.5807L43.7191 52.5658C43.4684 52.803 43.1364 52.9353 42.7913 52.9357C41.8414 52.9192 40.9237 53.28 40.2394 53.939C39.5551 54.598 39.1601 55.5015 39.1409 56.4513V56.9737L38.6676 57.4303L34.2795 54.8957L30.954 58.1042ZM48.0664 41.4149L48.8573 43.3175C49.5295 44.9228 50.61 46.3243 51.9916 47.3827L56.5426 50.889L58.9519 49.7292C59.1845 49.618 59.439 49.5602 59.6968 49.56C60.1315 49.5516 60.5518 49.7161 60.8652 50.0174C61.1787 50.3187 61.3597 50.7322 61.3685 51.1669V51.3309C61.3597 51.7656 61.1787 52.179 60.8652 52.4803C60.5518 52.7816 60.1315 52.9462 59.6968 52.9378H56.9898L48.291 48.2843C47.5226 47.8765 46.9185 47.2159 46.5807 46.4142C45.5284 43.8937 44.9862 41.1896 44.9853 38.4582V38.0497L47.3246 37.4866V37.7279C47.3256 38.9939 47.5777 40.2471 48.0664 41.4149ZM37.9718 19.7766C36.9953 20.6638 35.7706 21.2308 34.4624 21.4012C33.1541 21.2308 31.9294 20.6638 30.9529 19.7766V18.3766C32.0529 18.8848 33.2501 19.148 34.4618 19.148C35.6735 19.148 36.8708 18.8848 37.9707 18.3766L37.9718 19.7766ZM28.6137 7.88492C28.6137 6.33321 29.2301 4.84505 30.3273 3.74782C31.4246 2.65059 32.9127 2.03417 34.4644 2.03417C36.0162 2.03417 37.5043 2.65059 38.6015 3.74782C39.6988 4.84505 40.3152 6.33321 40.3152 7.88492V11.2637C40.3152 12.8154 39.6988 14.3036 38.6015 15.4008C37.5043 16.4981 36.0162 17.1145 34.4644 17.1145C32.9127 17.1145 31.4246 16.4981 30.3273 15.4008C29.2301 14.3036 28.6137 12.8154 28.6137 11.2637V7.88492ZM18.6821 26.5289C18.8146 25.919 19.1114 25.3569 19.5403 24.9034C19.9691 24.4498 20.5138 24.1221 21.1153 23.9557L29.4882 21.536C30.8723 22.7639 32.6189 23.5074 34.4634 23.6537C36.3079 23.5074 38.0545 22.7639 39.4386 21.536L47.8062 23.9557C48.4078 24.1221 48.9525 24.4498 49.3813 24.9034C49.8102 25.3569 50.1069 25.919 50.2395 26.5289L51.8067 34.0848L44.9853 35.7313V32.2084H42.6503V38.4582C42.6539 41.3241 43.198 44.1636 44.254 46.8279C41.2422 48.4785 37.8906 49.413 34.4592 49.559C31.0286 49.4095 27.6781 48.4748 24.6655 46.8269C25.7218 44.163 26.2666 41.3239 26.2713 38.4582V29.2851H23.9352V35.7313L17.1138 34.0889L18.6821 26.5289ZM7.55937 51.3319V51.1679C7.56815 50.7332 7.74915 50.3198 8.0626 50.0185C8.37605 49.7172 8.79631 49.5526 9.23101 49.561C9.48962 49.5612 9.74489 49.6194 9.97802 49.7313L12.3873 50.891L16.9383 47.3848C18.3191 46.3256 19.3995 44.9243 20.0726 43.3195L20.8635 41.416C21.3506 40.2474 21.601 38.9939 21.6001 37.7279V37.4866L23.9394 38.0497V38.4582C23.9404 41.1895 23.4003 43.8939 22.3503 46.4152C22.0118 47.2171 21.4074 47.8779 20.6389 48.2864L11.9359 52.9388H9.22892C8.79458 52.9466 8.37486 52.7819 8.06186 52.4806C7.74887 52.1794 7.56815 51.7663 7.55937 51.3319ZM11.9077 67.5813C10.4722 67.6062 9.08535 67.061 8.05112 66.0652C7.01688 65.0693 6.41964 63.7041 6.39026 62.2687C6.39872 61.3298 6.65668 60.4101 7.13768 59.6037C7.61869 58.7974 8.30545 58.1335 9.12758 57.68L16.9404 53.2919C16.9902 54.153 17.3634 54.9635 17.9852 55.5612L28.3535 65.5451C29.1403 66.2971 30.0055 66.9626 30.9341 67.5301C30.5632 67.5615 30.1913 67.5792 29.8173 67.5792L11.9077 67.5813ZM39.1074 67.5813C35.7182 67.6005 32.4548 66.2986 30.0095 63.9518L29.0985 63.0752L34.6421 57.7364L41.9001 61.9301L45.5568 64.0416L46.7615 62.1098L45.1212 61.1622L50.9406 55.5612C51.563 54.9639 51.9362 54.1532 51.9853 53.2919L59.7982 57.68C60.6205 58.1334 61.3076 58.7972 61.789 59.6035C62.2703 60.4098 62.5287 61.3296 62.5376 62.2687C62.5087 63.7041 61.9118 65.0695 60.8777 66.0654C59.8436 67.0614 58.4567 67.6065 57.0212 67.5813H39.1074Z" fill="#333333"/>
</g>
<defs>
<clipPath id="clip0_46_1597">
<rect width="68.9552" height="70" fill="white"/>
</clipPath>
</defs>
</svg>
