<svg width="70" height="70" viewBox="0 0 70 70" fill="none" xmlns="http://www.w3.org/2000/svg">
<path d="M12.4194 7.90322C10.6227 7.90322 8.89968 7.18951 7.62928 5.91911C6.35887 4.6487 5.64516 2.92566 5.64516 1.12903H0C0.0038844 4.42165 1.3136 7.57831 3.64184 9.90655C5.97007 12.2348 9.12673 13.5445 12.4194 13.5484C14.1239 13.5491 15.8104 13.1986 17.3735 12.5187C18.9367 11.8388 20.343 10.8442 21.5047 9.59677H21.6684C20.0516 7.06849 19.1928 4.13005 19.1935 1.12903C19.1935 2.92566 18.4798 4.6487 17.2094 5.91911C15.939 7.18951 14.216 7.90322 12.4194 7.90322Z" fill="#9B802E"/>
<path d="M57.5811 7.90322C55.7844 7.90322 54.0614 7.18951 52.791 5.91911C51.5206 4.6487 50.8069 2.92566 50.8069 1.12903C50.8076 4.13005 49.9488 7.06849 48.332 9.59677H48.4969C49.6584 10.8441 51.0645 11.8387 52.6275 12.5186C54.1904 13.1985 55.8767 13.549 57.5811 13.5484C60.8737 13.5445 64.0303 12.2348 66.3586 9.90655C68.6868 7.57831 69.9965 4.42165 70.0004 1.12903H64.3553C64.3553 2.92566 63.6416 4.6487 62.3711 5.91911C61.1007 7.18951 59.3777 7.90322 57.5811 7.90322Z" fill="#9B802E"/>
<path d="M31.1814 42.9032C30.3978 42.902 29.6467 42.5902 29.0926 42.0362C28.5386 41.4821 28.2268 40.731 28.2256 39.9474V32.3106C28.2258 31.8069 28.3547 31.3115 28.6001 30.8715C28.8456 30.4315 29.1993 30.0616 29.6278 29.7967C30.0564 29.5318 30.5455 29.3808 31.0487 29.358C31.552 29.3352 32.0528 29.4414 32.5035 29.6664L40.1403 33.4848C40.6311 33.7305 41.0439 34.108 41.3324 34.575C41.6209 35.042 41.7737 35.5801 41.7737 36.129C41.7737 36.6779 41.6209 37.216 41.3324 37.683C41.0439 38.15 40.6311 38.5275 40.1403 38.7732L32.5024 42.5916C32.0918 42.7956 31.6398 42.9022 31.1814 42.9032Z" fill="#9B802E"/>
<path d="M34.9996 22.5806C32.3199 22.5806 29.7005 23.3752 27.4725 24.864C25.2445 26.3527 23.5079 28.4686 22.4825 30.9443C21.457 33.4199 21.1887 36.1441 21.7115 38.7722C22.2343 41.4003 23.5246 43.8144 25.4194 45.7092C27.3142 47.604 29.7283 48.8943 32.3564 49.4171C34.9845 49.9399 37.7087 49.6716 40.1843 48.6461C42.66 47.6207 44.7759 45.8841 46.2646 43.6561C47.7533 41.4281 48.548 38.8086 48.548 36.129C48.5441 32.537 47.1154 29.0931 44.5754 26.5532C42.0355 24.0132 38.5916 22.5845 34.9996 22.5806ZM34.9996 47.4194C32.7665 47.4194 30.5837 46.7572 28.727 45.5166C26.8703 44.276 25.4232 42.5127 24.5687 40.4496C23.7141 38.3866 23.4905 36.1165 23.9262 33.9264C24.3618 31.7363 25.4371 29.7245 27.0161 28.1456C28.5951 26.5666 30.6068 25.4913 32.7969 25.0556C34.987 24.62 37.2571 24.8436 39.3202 25.6981C41.3832 26.5527 43.1465 27.9998 44.3871 29.8565C45.6277 31.7131 46.2899 33.896 46.2899 36.129C46.2866 39.1224 45.096 41.9922 42.9794 44.1089C40.8628 46.2255 37.9929 47.4161 34.9996 47.4194Z" fill="black"/>
<path d="M66.6129 60.9677H57.5806C56.6823 60.9677 55.8208 61.3246 55.1856 61.9598C54.5504 62.595 54.1936 63.4565 54.1936 64.3548V67.7419H51.9355V64.3548C51.9355 63.4565 51.5786 62.595 50.9434 61.9598C50.3082 61.3246 49.4467 60.9677 48.5484 60.9677H39.5161C38.6178 60.9677 37.7563 61.3246 37.1211 61.9598C36.4859 62.595 36.129 63.4565 36.129 64.3548V67.7419H33.871V64.3548C33.871 63.4565 33.5141 62.595 32.8789 61.9598C32.2437 61.3246 31.3822 60.9677 30.4839 60.9677H21.4516C20.5533 60.9677 19.6918 61.3246 19.0566 61.9598C18.4214 62.595 18.0645 63.4565 18.0645 64.3548V67.7419H15.8065V64.3548C15.8065 63.4565 15.4496 62.595 14.8144 61.9598C14.1792 61.3246 13.3177 60.9677 12.4194 60.9677H3.3871C2.48878 60.9677 1.62726 61.3246 0.992058 61.9598C0.356854 62.595 0 63.4565 0 64.3548V70H70V64.3548C70 63.4565 69.6431 62.595 69.0079 61.9598C68.3727 61.3246 67.5112 60.9677 66.6129 60.9677ZM13.5484 67.7419H2.25806V64.3548C2.25806 64.0554 2.37702 63.7682 2.58875 63.5565C2.80048 63.3448 3.08766 63.2258 3.3871 63.2258H12.4194C12.7188 63.2258 13.006 63.3448 13.2177 63.5565C13.4294 63.7682 13.5484 64.0554 13.5484 64.3548V67.7419ZM38.3871 64.3548C38.3871 64.0554 38.506 63.7682 38.7178 63.5565C38.9295 63.3448 39.2167 63.2258 39.5161 63.2258H48.5484C48.8478 63.2258 49.135 63.3448 49.3467 63.5565C49.5585 63.7682 49.6774 64.0554 49.6774 64.3548V67.7419H38.3871V64.3548ZM20.3226 64.3548C20.3226 64.0554 20.4415 63.7682 20.6533 63.5565C20.865 63.3448 21.1522 63.2258 21.4516 63.2258H30.4839C30.7833 63.2258 31.0705 63.3448 31.2822 63.5565C31.494 63.7682 31.6129 64.0554 31.6129 64.3548V67.7419H20.3226V64.3548ZM67.7419 67.7419H56.4516V64.3548C56.4516 64.0554 56.5706 63.7682 56.7823 63.5565C56.994 63.3448 57.2812 63.2258 57.5806 63.2258H66.6129C66.9123 63.2258 67.1995 63.3448 67.4112 63.5565C67.623 63.7682 67.7419 64.0554 67.7419 64.3548V67.7419Z" fill="black"/>
<path d="M0 0V2.25806H4.60645C4.82748 3.80493 5.50312 5.25124 6.54761 6.41343C7.59209 7.57562 8.95833 8.40128 10.4729 8.78561C11.9875 9.16994 13.5821 9.09561 15.0543 8.57205C16.5266 8.04849 17.8101 7.09932 18.7419 5.845C19.2014 7.41199 19.8859 8.90396 20.7742 10.2742C20.19 10.8173 19.5548 11.3027 18.8774 11.7239L18.7419 14.1829C18.5412 17.9925 17.5362 21.7165 15.793 25.1098C14.0498 28.5032 11.608 31.489 8.62807 33.871H6.85774C11.7968 29.0996 14.9151 22.7536 15.6744 15.9284L13.4355 15.6845C12.6915 22.3443 9.51538 28.4951 4.51613 32.9576V10.7021C3.65745 9.98818 2.89804 9.1627 2.25806 8.24758V56.4516H67.7419V8.24758C67.102 9.1627 66.3426 9.98818 65.4839 10.7021V32.9576C60.4844 28.4948 57.3082 22.3436 56.5645 15.6834L54.32 15.9273C55.0805 22.7536 58.2009 29.1002 63.1423 33.871H61.3719C58.3918 31.4892 55.9498 28.5034 54.2066 25.11C52.4634 21.7166 51.4585 17.9926 51.2581 14.1829L51.1282 11.725C50.4488 11.3039 49.8117 10.818 49.2258 10.2742C50.1143 8.90447 50.7988 7.41285 51.2581 5.84613C52.1903 7.09995 53.4739 8.04862 54.9461 8.57178C56.4183 9.09495 58.0127 9.16903 59.5271 8.78463C61.0415 8.40023 62.4075 7.57468 63.452 6.4127C64.4964 5.25073 65.1722 3.8047 65.3935 2.25806H70V0H0ZM35 9.03226C36.8989 9.03003 38.7334 8.34422 40.1681 7.10028C41.6028 5.85634 42.5416 4.13745 42.8129 2.25806H45.0947C44.8096 4.73552 43.6234 7.02163 41.762 8.68116C39.9005 10.3407 37.4938 11.2578 35 11.2578C32.5062 11.2578 30.0995 10.3407 28.238 8.68116C26.3766 7.02163 25.1904 4.73552 24.9053 2.25806H27.1871C27.4584 4.13745 28.3972 5.85634 29.8319 7.10028C31.2666 8.34422 33.1011 9.03003 35 9.03226ZM29.4677 2.25806H40.5323C40.2731 3.5342 39.5808 4.6815 38.5725 5.50559C37.5643 6.32967 36.3022 6.77985 35 6.77985C33.6978 6.77985 32.4357 6.32967 31.4275 5.50559C30.4192 4.6815 29.7269 3.5342 29.4677 2.25806ZM35 13.5484C38.0966 13.5443 41.0801 12.3846 43.3666 10.2963C45.653 8.20804 47.0777 5.34157 47.3618 2.25806H49.6198C49.3409 5.94487 47.6795 9.39021 44.9683 11.9041C42.2571 14.418 38.6962 15.8148 34.9989 15.8148C31.3015 15.8148 27.7407 14.418 25.0295 11.9041C22.3182 9.39021 20.6568 5.94487 20.3779 2.25806H22.636C22.9201 5.34196 24.3451 8.20875 26.632 10.2971C28.9189 12.3854 31.903 13.5448 35 13.5484ZM12.4194 6.77419C11.1185 6.77255 9.85794 6.32248 8.8502 5.49983C7.84246 4.67719 7.14914 3.53228 6.8871 2.25806H17.9516C17.6896 3.53228 16.9962 4.67719 15.9885 5.49983C14.9808 6.32248 13.7202 6.77255 12.4194 6.77419ZM4.51613 37.9355C6.31688 40.8434 7.423 44.1274 7.74855 47.5323L9.99532 47.3189C9.61481 43.321 8.25656 39.4781 6.04032 36.129H8.48016C11.0896 39.5482 12.6513 43.6509 12.976 47.9398L13.4581 54.1936H4.51613V37.9355ZM56.5419 54.1936L57.0229 47.9398C57.3476 43.6509 58.9092 39.5482 61.5187 36.129H63.9585C61.7458 39.4749 60.3888 43.3132 60.0069 47.3065L62.2537 47.5198C62.5804 44.1195 63.6857 40.84 65.4839 37.9355V54.1936H56.5419ZM49 14.3015C49.2118 18.3115 50.2463 22.2351 52.039 25.8284C53.8317 29.4216 56.3445 32.6077 59.421 35.1885C56.7295 38.8651 55.1188 43.2206 54.7705 47.7637L54.2771 54.1936H15.7229L15.2284 47.766C14.8789 43.2231 13.2683 38.868 10.5779 35.1908C13.654 32.6097 16.1665 29.4235 17.9592 25.8303C19.7519 22.2371 20.7866 18.3137 20.9989 14.3037L21.1784 10.8839C22.7365 13.1027 24.8059 14.9137 27.2116 16.164C29.6174 17.4143 32.2888 18.067 35 18.067C37.7112 18.067 40.3826 17.4143 42.7884 16.164C45.1941 14.9137 47.2635 13.1027 48.8216 10.8839L49 14.3015ZM57.5806 6.77419C56.2798 6.77255 55.0192 6.32248 54.0115 5.49983C53.0037 4.67719 52.3104 3.53228 52.0484 2.25806H63.1129C62.8509 3.53228 62.1575 4.67719 61.1498 5.49983C60.1421 6.32248 58.8815 6.77255 57.5806 6.77419Z" fill="black"/>
<path d="M60.9678 19.1935H63.2258V21.4516H60.9678V19.1935Z" fill="black"/>
<path d="M60.9678 14.6774H63.2258V16.9355H60.9678V14.6774Z" fill="black"/>
<path d="M6.77441 14.6774H9.03248V16.9355H6.77441V14.6774Z" fill="black"/>
<path d="M6.77441 19.1935H9.03248V21.4516H6.77441V19.1935Z" fill="black"/>
</svg>
